<svg xmlns="http://www.w3.org/2000/svg" viewBox="0 0 136 136" width="136" height="136">
  <rect x="0" y="0" width="136" height="136" rx="0" ry="0" fill="#0A0A0A"></rect>
  <g transform="translate(18 18)">
    <rect x="4" y="18" width="42" height="12" fill="#FAFAFA"></rect>
    <rect x="20" y="18" width="12" height="50" fill="#FAFAFA"></rect>
    <rect x="50" y="18" width="12" height="50" fill="#FAFAFA"></rect>
    <path d="M 62 18 L 80 18 Q 92 18 92 32 Q 92 44 80 44 L 62 44 Z" fill="#FAFAFA"></path>
    <polygon points="74,40 86,40 92,68 80,68" fill="#FAFAFA"></polygon>
    <rect x="4" y="76" width="88" height="2" fill="#FAFAFA"></rect>
    <rect x="12" y="86" width="14" height="8" fill="#FF453A"></rect>
    <rect x="32" y="82" width="14" height="12" fill="#FF453A"></rect>
    <rect x="52" y="86" width="14" height="8" fill="#30D158"></rect>
    <rect x="72" y="80" width="14" height="14" fill="#30D158"></rect>
  </g>
</svg>