<svg xmlns="http://www.w3.org/2000/svg" viewBox="0 0 250 60" width="250" height="60">
  <svg x="0" y="6" width="48" height="48" viewBox="18 18 100 100">
    <g transform="translate(18 18)">
      <rect x="4" y="18" width="42" height="12" fill="#0b1430"/>
      <rect x="20" y="18" width="12" height="50" fill="#0b1430"/>
      <rect x="50" y="18" width="12" height="50" fill="#0b1430"/>
      <path d="M 62 18 L 80 18 Q 92 18 92 32 Q 92 44 80 44 L 62 44 Z" fill="#0b1430"/>
      <polygon points="74,40 86,40 92,68 80,68" fill="#0b1430"/>
      <rect x="4" y="76" width="88" height="2" fill="#0b1430"/>
      <rect x="12" y="86" width="14" height="8" fill="#FF3B30"/>
      <rect x="32" y="82" width="14" height="12" fill="#FF3B30"/>
      <rect x="52" y="86" width="14" height="8" fill="#00C853"/>
      <rect x="72" y="80" width="14" height="14" fill="#00C853"/>
    </g>
  </svg>
  <text x="58" y="39" font-family="'Helvetica Neue',Arial,'PingFang SC',sans-serif" font-size="29" font-weight="800" letter-spacing="-0.6"><tspan fill="#0b1430">TradeReplay</tspan></text>
</svg>
